<?xml version="1.0" encoding="UTF-8" standalone="no"?> <svg xmlns="http://www.w3.org/2000/svg" xmlns:xlink="http://www.w3.org/1999/xlink" xmlns:serif="http://www.serif.com/" width="23px" height="27px" viewBox="0 0 23 27" version="1.1" xml:space="preserve" style="fill-rule:evenodd;clip-rule:evenodd;stroke-linejoin:round;stroke-miterlimit:2;"><g id="Page-1"><g id="_616659-smallest-4" serif:id="616659-smallest-4"><path id="Path" d="M7.4,13.8c0,0.2 0.2,0.6 0.6,0.8l3.8,0.8c0.2,-0 0.2,0.2 0,0.2c-1,0.2 -2.8,0.8 -3.8,0.8c-0.2,0.2 -0.6,0.2 -0.6,0.8l-1,7.2c0,0.2 -0.2,0.2 -0.2,-0l-1,-7.2c0,-0.2 -0.2,-0.6 -0.6,-0.8c-0.8,-0.2 -2.8,-0.8 -3.8,-0.8c-0.2,-0 -0.2,-0.2 -0,-0.2c1,-0.2 2.8,-0.8 3.8,-0.8c0.2,-0.2 0.6,-0.2 0.6,-0.8l1,-7.2c0,-0.2 0.2,-0.2 0.2,-0c0.4,2.2 1,6.8 1,7.2Z" style="fill:#fee403;fill-rule:nonzero;"></path><path id="Path1" serif:id="Path" d="M15.6,6.4c-0.2,0 -0.4,-0.2 -0.4,-0.4c-0.2,-1 -0.6,-3.2 -0.6,-4.6c0,-0.2 -0.2,-0.2 -0.2,0l-0.8,4.6c0,0.2 -0.2,0.4 -0.4,0.4c-0.6,0 -1.6,0.2 -2.4,0.4l0,0.2c0.8,0.2 1.8,0.4 2.4,0.6c0.2,-0 0.4,0.2 0.4,0.4l0.6,4.4c0,0.2 0.2,0.2 0.2,0l0.6,-4.4c0,-0.2 0.2,-0.4 0.4,-0.4c0.6,-0.2 1.8,-0.4 2.6,-0.6l0,-0.2l-2.4,-0.4Z" style="fill:#fee403;fill-rule:nonzero;"></path><path id="Path2" serif:id="Path" d="M19.4,19.8c-0.2,0 -0.2,-0.2 -0.2,-0.2c-0.2,-0.8 -0.2,-2.4 -0.4,-3.4c-0,-0.2 -0.2,-0.2 -0.2,-0l-0.6,3.2c-0,0.2 -0.2,0.2 -0.2,0.2c-0.4,0.2 -1.2,0.2 -1.8,0.4c-0.2,0 -0.2,0.2 -0,0.2c0.6,0.2 1.4,0.2 1.8,0.4c-0,0.2 0.2,0.4 0.2,0.6l0.4,3.4c-0,0.2 0.2,0.2 0.2,0l0.4,-3.4c0,-0.2 0.2,-0.2 0.2,-0.2c0.4,-0.2 1.2,-0.2 1.8,-0.4c0.2,0 0.2,-0.2 0,-0.2l-1.6,-0.6Z" style="fill:#fee403;fill-rule:nonzero;"></path><path id="Path3" serif:id="Path" d="M6.6,24.4l0.8,-6.2c-1,-1.8 -1.6,-3.8 -2,-5.2l-0.2,0.8c0,0.2 -0.2,0.6 -0.6,0.8c-0.8,0.2 -2.8,0.8 -3.8,0.8c-0.2,-0 -0.2,0.2 -0,0.2c1,0.2 2.8,0.8 3.8,0.8c0.2,0.2 0.6,0.2 0.6,0.8l1,7.2c0,0.2 0.2,0.2 0.4,-0Z" style="fill:#fece03;fill-rule:nonzero;"></path><path id="Path4" serif:id="Path" d="M13.6,5.4l0,0.4c0,0.2 -0.2,0.4 -0.4,0.4c-0.6,0.2 -1.6,0.4 -2.4,0.6l0,0.2c0.8,0.2 1.8,0.4 2.4,0.6c0.2,-0 0.4,0.2 0.4,0.4l0.6,4.4c0,0.2 0.2,0.2 0.2,0l0.6,-4c-0.6,-1 -1,-2 -1.4,-3Z" style="fill:#fece03;fill-rule:nonzero;"></path><path id="Path5" serif:id="Path" d="M17.8,21.2l0.4,3.4c0,0.2 0.2,0.2 0.2,0l0.4,-3.2c-0.8,-0.8 -1,-1.8 -1.2,-2.2l0,0.2c0,0.2 -0.2,0.2 -0.2,0.2c-0.4,0.2 -1.2,0.2 -1.8,0.4c-0.2,0 -0.2,0.2 0,0.2c0.6,0.2 1.4,0.2 1.8,0.4c0.2,0.4 0.4,0.6 0.4,0.6Z" style="fill:#fece03;fill-rule:nonzero;"></path><path id="Path6" serif:id="Path" d="M12.6,15.2l-4.2,-1.2c-0.2,-0 -0.2,-0.2 -0.2,-0.4l-0.8,-2.6c0,-0.2 -0.2,-0.2 -0.4,-0.2c-0.2,-0 -0.4,0.2 -0.4,0.4l0.4,2.8c0,0.4 0.4,0.8 0.8,1l2.8,0.8l-2.6,0.4c-0.4,0.2 -0.8,0.6 -0.8,1l-0.8,5.6l-0.8,-5.6c-0,-0.4 -0.4,-0.8 -0.8,-1l-2.8,-0.8l2.8,-0.8c0.4,-0.2 0.8,-0.4 0.8,-1l0.8,-5.6l0.2,1.2c-0,0.2 0.2,0.2 0.4,0.2c0.2,0 0.2,-0.2 0.2,-0.4l-0.4,-4c-0.2,0.2 -0.2,0 -0.6,0c-0,0 -0.2,0.2 -0.4,0.4l-1,8.4c-0,0.2 -0.2,0.2 -0.2,0.4l-4.2,1.2c-0.2,0 -0.2,0.2 -0.2,0.4c-0,0.2 0.2,0.2 0.2,0.4l4.2,1.2c0.2,0 0.2,0.2 0.2,0.4l1.2,8.4c-0,0.2 0.2,0.2 0.4,0.2c0.2,0 0.2,-0.2 0.4,-0.2l1.2,-8.4c-0,-0.2 0.2,-0.2 0.2,-0.4l4.2,-1.2c0.2,0 0.2,-0.2 0.2,-0.4l-0,-0.6Z" style="fill:#feb103;fill-rule:nonzero;"></path><path id="Path7" serif:id="Path" d="M15.6,8l2.8,-0.8c0.2,0 0.2,-0.2 0.2,-0.4l0,-0.4l-3,-0.6c0,0 -0.2,0 -0.2,-0.2l-0.6,-5.4c0,-0.2 -0.2,-0.2 -0.4,-0.2c-0.2,0 -0.4,0 -0.4,0.2l-0.4,3.4c0,0.2 0.2,0.4 0.2,0.4c0.2,0 0.4,-0.2 0.4,-0.2l0.2,-0.6l0.4,2.8c0,0.4 0.2,0.8 0.8,0.8l1.2,0.2l-1.2,0.4c-0.6,0 -0.6,0.4 -0.8,0.6l-0.4,2.8l-0.4,-2.8c0,-0.4 -0.2,-0.8 -0.8,-0.8l-1.2,-0.4l1.2,-0.2c0.4,0 0.8,-0.4 0.8,-0.6l0,-0.6c0,0 0,-0.4 -0.2,-0.4c-0.2,0 -0.4,0.2 -0.4,0.4l0,0.4c0,0 0,0.2 -0.2,0.2l-2.8,0.6c-0.2,0 -0.2,0.2 -0.2,0.4c0,0.2 0.2,0.2 0.2,0.4l2.8,0.8c0,0 0.2,0 0.2,0.2l0.6,5c0,0.2 0.2,0.2 0.4,0.2c0.2,0 0.2,-0.2 0.4,-0.2l0.8,-5.4Z" style="fill:#feb103;fill-rule:nonzero;"></path><path id="Path8" serif:id="Path" d="M21.8,20l-2.2,-0.6l-0.6,-4.4c0,-0.2 -0.2,-0.2 -0.4,-0.2c-0.2,0 -0.2,0.2 -0.4,0.2l-0.6,4.4l-2.2,0.6c-0.2,0 -0.2,0.2 -0.2,0.4c-0,0.2 0.2,0.2 0.2,0.4l2.2,0.6c0,0.2 0.2,0.2 0.4,0.2c0.2,0 0.2,-0.2 0.2,-0.4c0,-0.2 -0.2,-0.6 -0.6,-0.8l-0.8,-0.2l0.8,-0.2c0.2,-0.2 0.6,-0.2 0.6,-0.8l0.2,-1.8l0.2,1.8c0,0.2 0.2,0.6 0.6,0.8l0.8,0.2l-0.8,0.2c-0.2,0.2 -0.6,0.2 -0.6,0.8l0,1.8l0,-0.2c0,-0.2 -0.2,-0.2 -0.4,-0.2c-0.2,0 -0.2,0.2 -0.2,0.4l0.4,2.8c0,0.2 0.2,0.2 0.4,0.2c0.2,0 0.2,-0.2 0.4,-0.2l0.6,-4.4l2.2,-0.6c0.2,0 0.2,-0.2 0.2,-0.4c-0.2,-0.2 -0.2,-0.4 -0.4,-0.4Z" style="fill:#feb103;fill-rule:nonzero;"></path></g></g></svg> 