<?xml version="1.0" encoding="UTF-8"?> <svg xmlns="http://www.w3.org/2000/svg" xmlns:xlink="http://www.w3.org/1999/xlink" width="23px" height="27px" viewBox="0 0 23 27" version="1.1"><title>616659-smallest-4</title><g id="Page-1" stroke="none" stroke-width="1" fill="none" fill-rule="evenodd"><g id="616659-smallest-4" fill-rule="nonzero"><path d="M7.4,13.8 C7.4,14 7.6,14.4 8,14.6 L11.8,15.4 C12,15.4 12,15.6 11.8,15.6 C10.8,15.8 9,16.4 8,16.4 C7.8,16.6 7.4,16.6 7.4,17.2 L6.4,24.4 C6.4,24.6 6.2,24.6 6.2,24.4 L5.2,17.2 C5.2,17 5,16.6 4.6,16.4 C3.8,16.2 1.8,15.6 0.8,15.6 C0.6,15.6 0.6,15.4 0.8,15.4 C1.8,15.2 3.6,14.6 4.6,14.6 C4.8,14.4 5.2,14.4 5.2,13.8 L6.2,6.6 C6.2,6.4 6.4,6.4 6.4,6.6 C6.8,8.8 7.4,13.4 7.4,13.8 Z" id="Path" fill="#EF0606"></path><path d="M15.6,6.4 C15.4,6.4 15.2,6.2 15.2,6 C15,5 14.6,2.8 14.6,1.4 C14.6,1.2 14.4,1.2 14.4,1.4 L13.6,6 C13.6,6.2 13.4,6.4 13.2,6.4 C12.6,6.4 11.6,6.6 10.8,6.8 L10.8,7 C11.6,7.2 12.6,7.4 13.2,7.6 C13.4,7.6 13.6,7.8 13.6,8 L14.2,12.4 C14.2,12.6 14.4,12.6 14.4,12.4 L15,8 C15,7.8 15.2,7.6 15.4,7.6 C16,7.4 17.2,7.2 18,7 C18,7 18,6.8 18,6.8 L15.6,6.4 Z" id="Path" fill="#EF0606"></path><path d="M19.4,19.8 C19.2,19.8 19.2,19.6 19.2,19.6 C19,18.8 19,17.2 18.8,16.2 C18.8,16 18.6,16 18.6,16.2 L18,19.4 C18,19.6 17.8,19.6 17.8,19.6 C17.4,19.8 16.6,19.8 16,20 C15.8,20 15.8,20.2 16,20.2 C16.6,20.4 17.4,20.4 17.8,20.6 C17.8,20.8 18,21 18,21.2 L18.4,24.6 C18.4,24.8 18.6,24.8 18.6,24.6 L19,21.2 C19,21 19.2,21 19.2,21 C19.6,20.8 20.4,20.8 21,20.6 C21.2,20.6 21.2,20.4 21,20.4 L19.4,19.8 Z" id="Path" fill="#EF0606"></path><path d="M6.6,24.4 L7.4,18.2 C6.4,16.4 5.8,14.4 5.4,13 L5.2,13.8 C5.2,14 5,14.4 4.6,14.6 C3.8,14.8 1.8,15.4 0.8,15.4 C0.6,15.4 0.6,15.6 0.8,15.6 C1.8,15.8 3.6,16.4 4.6,16.4 C4.8,16.6 5.2,16.6 5.2,17.2 L6.2,24.4 C6.2,24.6 6.4,24.6 6.6,24.4 Z" id="Path" fill="#CB0901"></path><path d="M13.6,5.4 L13.6,5.8 C13.6,6 13.4,6.2 13.2,6.2 C12.6,6.4 11.6,6.6 10.8,6.8 L10.8,7 C11.6,7.2 12.6,7.4 13.2,7.6 C13.4,7.6 13.6,7.8 13.6,8 L14.2,12.4 C14.2,12.6 14.4,12.6 14.4,12.4 L15,8.4 C14.4,7.4 14,6.4 13.6,5.4 Z" id="Path" fill="#CB0901"></path><path d="M17.8,21.2 L18.2,24.6 C18.2,24.8 18.4,24.8 18.4,24.6 L18.8,21.4 C18,20.6 17.8,19.6 17.6,19.2 L17.6,19.4 C17.6,19.6 17.4,19.6 17.4,19.6 C17,19.8 16.2,19.8 15.6,20 C15.4,20 15.4,20.2 15.6,20.2 C16.2,20.4 17,20.4 17.4,20.6 C17.6,21 17.8,21.2 17.8,21.2 Z" id="Path" fill="#CB0901"></path><path d="M12.6,15.2 L8.4,14 C8.2,14 8.2,13.8 8.2,13.6 L7.4,11 C7.4,10.8 7.2,10.8 7,10.8 C6.8,10.8 6.6,11 6.6,11.2 L7,14 C7,14.4 7.4,14.8 7.8,15 L10.6,15.8 L8,16.2 C7.6,16.4 7.2,16.8 7.2,17.2 L6.4,22.8 L5.6,17.2 C5.6,16.8 5.2,16.4 4.8,16.2 L2,15.4 L4.8,14.6 C5.2,14.4 5.6,14.2 5.6,13.6 L6.4,8 L6.6,9.2 C6.6,9.4 6.8,9.4 7,9.4 C7.2,9.4 7.2,9.2 7.2,9 L6.8,5 C6.6,5.2 6.6,5 6.2,5 C6.2,5 6,5.2 5.8,5.4 L4.8,13.8 C4.8,14 4.6,14 4.6,14.2 L0.4,15.4 C0.2,15.4 0.2,15.6 0.2,15.8 C0.2,16 0.4,16 0.4,16.2 L4.6,17.4 C4.8,17.4 4.8,17.6 4.8,17.8 L6,26.2 C6,26.4 6.2,26.4 6.4,26.4 C6.6,26.4 6.6,26.2 6.8,26.2 L8,17.8 C8,17.6 8.2,17.6 8.2,17.4 L12.4,16.2 C12.6,16.2 12.6,16 12.6,15.8 C12.6,15.6 12.6,15.2 12.6,15.2 Z" id="Path" fill="#890303"></path><path d="M15.6,8 L18.4,7.2 C18.6,7.2 18.6,7 18.6,6.8 C18.6,6.6 18.6,6.6 18.6,6.4 L15.6,5.8 C15.6,5.8 15.4,5.8 15.4,5.6 L14.8,0.2 C14.8,0 14.6,0 14.4,0 C14.2,0 14,0 14,0.2 L13.6,3.6 C13.6,3.8 13.8,4 13.8,4 C14,4 14.2,3.8 14.2,3.8 L14.4,3.2 L14.8,6 C14.8,6.4 15,6.8 15.6,6.8 L16.8,7 L15.6,7.4 C15,7.4 15,7.8 14.8,8 L14.4,10.8 L14,8 C14,7.6 13.8,7.2 13.2,7.2 L12,6.8 L13.2,6.6 C13.6,6.6 14,6.2 14,6 L14,5.4 C14,5.4 14,5 13.8,5 C13.6,5 13.4,5.2 13.4,5.4 L13.4,5.8 C13.4,5.8 13.4,6 13.2,6 L10.4,6.6 C10.2,6.6 10.2,6.8 10.2,7 C10.2,7.2 10.4,7.2 10.4,7.4 L13.2,8.2 C13.2,8.2 13.4,8.2 13.4,8.4 L14,13.4 C14,13.6 14.2,13.6 14.4,13.6 C14.6,13.6 14.6,13.4 14.8,13.4 L15.6,8 C15.6,8 15.6,8 15.6,8 Z" id="Path" fill="#890303"></path><path d="M21.8,20 L19.6,19.4 L19.6,19.4 L19,15 C19,14.8 18.8,14.8 18.6,14.8 C18.4,14.8 18.4,15 18.2,15 L17.6,19.4 L17.6,19.4 L15.4,20 C15.2,20 15.2,20.2 15.2,20.4 C15.2,20.6 15.4,20.6 15.4,20.8 L17.6,21.4 L17.6,21.4 C17.6,21.6 17.8,21.6 18,21.6 C18.2,21.6 18.2,21.4 18.2,21.2 C18.2,21 18,20.6 17.6,20.4 L16.8,20.2 L17.6,20 C17.8,19.8 18.2,19.8 18.2,19.2 L18.4,17.4 L18.6,19.2 C18.6,19.4 18.8,19.8 19.2,20 L20,20.2 L19.2,20.4 C19,20.6 18.6,20.6 18.6,21.2 L18.6,23 L18.6,22.8 C18.6,22.6 18.4,22.6 18.2,22.6 C18,22.6 18,22.8 18,23 L18.4,25.8 C18.4,26 18.6,26 18.8,26 C19,26 19,25.8 19.2,25.8 L19.8,21.4 L19.8,21.4 L22,20.8 C22.2,20.8 22.2,20.6 22.2,20.4 C22,20.2 22,20 21.8,20 Z" id="Path" fill="#890303"></path></g></g></svg> 